<?xml version="1.0" encoding="utf-8"?>

<!DOCTYPE svg PUBLIC "-//W3C//DTD SVG 1.1//EN" "http://www.w3.org/Graphics/SVG/1.1/DTD/svg11.dtd">
<svg version="1.1" id="Layer_1" xmlns="http://www.w3.org/2000/svg" xmlns:xlink="http://www.w3.org/1999/xlink" x="0px" y="0px"
	 viewBox="0 0 1644.0211 1646.3213" enable-background="new 0 0 1644.0211 1646.3213" xml:space="preserve">
<g>
	<path d="M1097.8855,1103.8251c0,5.2395,0.0757,10.4807-0.0286,15.7183c-0.0618,3.1168,1.2972,4.1991,3.9888,2.7963
		c5.7821-3.014,12.4541-4.3066,17.4663-8.7688c3.0957-2.7561,7.0959-3.2974,10.6897-4.8075
		c11.1946-4.7039,20.856-11.7572,30.1573-19.3724c8.298-6.7938,17.3114-12.4312,26.6141-17.7693
		c12.6101-7.236,24.4832-15.6907,36.6714-23.6211c13.665-8.8911,28.0228-16.7115,41.9803-25.1611
		c11.0255-6.6747,19.7456-16.4077,30.7322-23.2269c10.8451-6.7313,21.1334-14.3546,31.9138-21.1963
		c15.2826-9.6992,29.3713-20.927,43.5629-32.1124c15.0166-11.8358,30.0377-23.8354,47.1854-32.6484
		c6.2766-3.226,9.4789-9.472,14.2904-14.1346c18.7903-18.2083,37.1936-36.9277,58.0223-52.7717
		c14.1909-10.7947,23.0758-25.796,34.2982-38.8835c13.7374-16.0206,27.2295-32.1609,42.2263-47.0782
		c7.6289-7.5884,14.1119-16.476,20.2504-25.3714c5.437-7.8787,11.9454-14.3649,19.7579-19.6503
		c5.1207-3.4645,8.6151-1.6921,10.7537,4.0237c5.2257,13.9661,1.1333,27.1436-2.7179,40.3843
		c-8.3287,28.6357-20.4905,55.6591-34.6986,81.8016c-13.2229,24.3297-27.0675,48.3287-40.3755,72.5889
		c-14.9738,27.2971-33.2095,52.2589-50.6871,77.788c-9.9462,14.528-21.3878,28.0265-31.4884,42.4561
		c-11.1217,15.8879-20.8094,32.806-32.324,48.387c-17.3636,23.4958-35.6736,46.297-53.7661,69.2476
		c-12.9458,16.4218-25.4896,33.24-39.4701,48.7479c-21.9103,24.3041-42.5938,49.6101-63.5905,74.6674
		c-15.5736,18.5852-32.4716,35.9602-48.9891,53.6769c-14.2522,15.2871-28.7672,30.3395-43.5034,45.1602
		c-6.969,7.0088-10.0768,17.2947-19.3137,22.2701c0.3558,9.0806-8.5382,11.248-13.1464,16.1049
		c-11.9678,12.6136-23.9276,25.3486-36.7003,37.1766c-16.6315,15.4019-33.5593,30.5154-50.8989,45.1123
		c-18.5243,15.5945-38.151,29.7466-59.6301,41.144c-17.6884,9.3862-35.0436,19.3821-53.3865,27.5405
		c-19.6275,8.7297-40.2297,14.4801-60.6353,20.8599c-32.4248,10.1377-65.8404,15.923-99.3448,20.4695
		c-18.0784,2.4532-36.303,5.6493-54.7839,4.7871c-6.7629-0.3154-13.5751-0.0668-20.244,1.2909
		c-19.9484,4.0618-39.0801-1.5278-58.3046-5.1682c-4.4647-0.8453-8.5231-4.2594-12.5677-6.8099
		c-7.6675-4.8352-14.4119-4.3479-22.9172-0.2866c-12.3014,5.8741-25.6153,10.0967-38.9096,13.3263
		c-29.164,7.085-58.922,11.4858-88.9398,10.5145c-31.6682-1.0248-62.9028-5.5536-93.8818-13.3689
		c-28.5715-7.2078-52.513-22.6555-77.2078-37.0308c-26.3704-15.3506-50.7813-33.6693-75.7131-51.2235
		c-13.4632-9.4792-27.1111-18.9363-41.4293-27.2671c-9.1413-5.3185-19.4169-7.7743-28.8768-12.2976
		c-13.0116-6.2214-24.7389-14.576-37.3092-21.515c-11.1546-6.1577-22.5697-11.7524-34.1442-17.0502
		c-1.9842-0.9082-4.2618-1.5713-5.796-3.0001c-7.5568-7.0381-16.8422-6.9838-26.2236-6.9718
		c-4.5823,0.006-9.1645-0.3912-13.7479-0.5781c-8.2742-0.3375-16.5453-1.6693-24.8112,0.4103
		c-2.6306,0.662-5.9493,0.7424-4.4352-3.5686c2.2161-6.3101,5.5639-11.6688,12.6212-13.9772
		c13.9091-4.5498,26.8997-11.5929,41.1286-15.3319c4.16-1.0933,6.4782-4.0905,7.9057-8.0447
		c7.8646-21.785,21.6439-39.2905,38.8326-54.5314c17.4414-15.4647,37.8782-25.6162,59.4273-33.3739
		c15.7699-5.6771,31.691-11.0167,48.1411-14.9342c25.2956-6.0239,49.9541-2.3387,74.6775,2.1039
		c14.2872,2.5675,27.5114,9.2889,42.1936,10.9391c12.5895,1.4149,24.3565-0.066,35.5556-5.7794
		c4.9229-2.5115,4.4083-5.9116-0.9474-9.8346c-11.7467-8.6045-25.1327-11.9514-39.3022-14.5886
		c-14.4544-2.6903-27.2969-9.7284-35.7888-22.9021c-3.4103-5.2905-7.7846-9.955-11.6588-14.9518
		c-8.7845-11.3302-13.1093-24.9435-19.1541-37.6698c-15.7503-33.1589-20.8228-68.7054-22.4548-104.8341
		c-0.879-19.4583,3.2423-38.7236,4.2142-58.1338c1.4913-29.782,7.6723-58.8267,12.9863-88.0393
		c8.3276-45.7797,23.1174-89.6534,39.9944-132.7402c13.2211-33.7533,25.7312-67.7681,38.6136-101.6384
		c12.7273-33.4626,25.8521-66.7394,40.035-99.5993c9.5959-22.2322,18.4407-44.8842,29.5802-66.3311
		c14.5776-28.0662,27.0384-57.146,42.4716-84.8311c10.251-18.3889,18.8081-37.8256,28.6259-56.5432
		c12.8766-24.5495,25.3998-49.2926,38.7256-73.5957c10.543-19.228,21.827-38.0923,32.2789-57.3395
		c12.3986-22.8321,26.6166-44.5605,38.8575-67.465c10.1622-19.015,21.119-37.6233,32.8765-55.7187
		c2.6315-4.0501,6.7032-7.048,10.9276-9.1968c6.3062-3.2078,12.6782,0.6237,14.6882,8.2109
		c2.3291,8.7921,2.2532,17.4131-0.5408,26.238c-6.2008,19.5851-10.5192,39.5421-13.5571,59.9552
		c-2.4241,16.2887-8.3238,32.0576-12.6442,48.0672c-7.5693,28.0484-15.5767,55.9994-25.9985,83.1093
		c-8.8147,22.9293-13.1891,47.015-20.1185,70.4229c-6.2958,21.2676-6.2454,43.285-5.1693,65.3938
		c0.5021,10.3159-2.6473,20.6806-4.1667,30.9967c-2.0598,13.9839-4.1743,28.0287-7.7981,41.7721
		c-2.3299,8.8364-5.4431,17.4086-6.9568,26.5446c-2.5538,15.413-2.613,30.8992-2.6334,46.3591
		c-0.0278,21.1025-1.6231,41.97-7.2899,62.3043c-3.0045,10.7809-2.4818,21.5959-2.4985,32.4821
		c-0.0231,15.0508,1.1831,30.1207-1.757,45.0984c-1.4218,7.2431-0.6167,7.6569,6.2539,6.2537
		c18.1652-3.7096,36.3158-7.4977,54.5187-11.0137c18.4658-3.5667,29.1739,4.4556,32.6955,22.7776
		c7.4,38.4995,0.5445,75.5538-9.9801,112.4225c-6.4128,22.4648-13.8887,44.5676-21.4419,66.6548
		c-0.1412,0.4127-0.4114,0.7953-0.483,1.2156c-0.4745,2.7824-1.861,6.7749,0.0634,8.0991c3.0718,2.1135,4.6459-2.1585,6.4665-3.9631
		c36.0207-35.704,78.3574-63.3252,119.2067-92.7901c17.8368-12.8657,33.3762-27.9868,48.5255-43.6595
		c9.8419-10.1819,19.9929-20.0853,28.4193-31.5817c11.7662-16.053,21.2894-33.4732,31.425-50.5253
		c14.5133-24.4172,27.3679-49.7042,39.6928-75.2785c19.7137-40.906,39.5403-81.7769,57.4824-123.4833
		c9.4735-22.0211,16.9819-44.9022,25.0239-67.5206c10.1664-28.5933,20.3533-57.1895,29.8265-86.016
		c9.267-28.1992,18.48-56.4646,26.2247-85.1044c11.7325-43.386,24.1032-86.6163,32.5356-130.8753
		c4.2422-22.2661,8.7008-44.6143,14.5906-66.4901c7.905-29.3617,12.4232-59.3356,18.6368-88.995
		c1.5806-7.5445,6.1613-13.8975,8.1632-21.2897c0.6781-2.5038,3.1488-3.7989,5.8022-3.1455
		c2.4969,0.6149,2.9152,2.9017,3.161,5.1964c1.2163,11.3511,0.8435,22.6484-0.3306,34.0026
		c-4.4712,43.2359-10.428,86.2872-16.5715,129.2972c-8.6465,60.5337-18.3044,120.9222-27.2935,181.408
		c-3.8534,25.9282-5.4995,52.2506-11.2671,77.8061c-4.0566,17.9755-8.2469,35.7321-8.0649,54.2334
		c0.1094,11.1228-0.3394,22.3389,0.9437,33.3405c1.6726,14.3423,3.6121,28.6008,3.1179,43.0834
		c-0.0659,1.9324,0.1912,3.9802,0.7917,5.813c2.5782,7.8686,5.3215,15.6837,8.0519,23.5017
		c0.5625,1.6111,1.5725,4.5458,2.8711,3.8018c6.4363-3.6877,14.9401,0.7384,20.5422-5.4753
		c2.2542-2.5004,4.9623-4.5535,8.1788-5.1832c8.7156-1.7064,15.8038-6.1089,22.0186-12.2081
		c8.0895-7.939,18.4479-12.1663,28.5181-16.5502c8.7719-3.8187,15.2643-10.7372,23.5441-15.1984
		c11.473-6.1818,22.1512-13.8533,34.0277-19.3149c13.3846-6.1551,23.2605-16.9459,34.2476-26.0633
		c26.7113-22.1661,54.7346-42.6258,81.6887-64.4351c17.9244-14.5032,36.004-28.8399,53.079-44.4684
		c13.7377-12.574,28.3872-24.2987,42.2356-36.7964c7.0344-6.3482,14.0597-13.0456,20.2172-20.3414
		c6.3887-7.5698,13.7813-13.9326,21.4867-19.9372c28.627-22.3082,54.4276-47.8256,81.7185-71.6479
		c13.8243-12.0673,28.0343-23.6207,42.7826-34.5149c2.7527-2.0334,6.1-4.3497,9.3031-0.755
		c3.4122,3.8294,0.1224,5.8326-2.007,9.1295c-11.2212,17.3744-26.0634,31.576-39.7384,46.7776
		c-11.0908,12.3287-22.8994,24.0086-34.2008,36.1521c-19.5985,21.0589-38.0353,43.3296-58.9012,63.0358
		c-15.4252,14.5679-28.8368,30.7939-43.1824,46.196c-12.9115,13.8627-25.4332,28.1327-38.5602,41.8258
		c-17.0524,17.7877-34.3094,35.3815-51.2168,53.3053c-17.4956,18.547-33.9078,38.0696-50.7466,57.1978
		c-22.9038,26.0176-44.6708,52.971-67.4518,79.0727c-9.9006,11.3438-19.317,23.1221-28.6838,34.9171
		c-16.0151,20.1666-30.338,41.594-45.8016,62.1641c-16.8203,22.3749-31.6722,45.8876-44.672,70.653
		c-3.6315,6.9185-7.8232,13.7074-12.7482,19.7485c-10.5767,12.9738-16.0447,28.457-22.3873,43.4818
		c-6.8649,16.2619-14.1182,32.4026-19.0076,49.4431c-0.6746,2.3511-1.6786,4.7922-0.9569,7.0453
		c2.6765,8.3555-0.5325,16.1539-1.8757,24.1177c-3.083,18.2795-5.5428,36.6723-10.819,54.5392
		c-1.5555,5.2676,2.4424,4.051,5.0096,2.8966c7-3.1479,13.9584-6.2537,21.8494-6.2338
		c16.5825,0.0418,35.1058,5.7484,41.2305,24.3658c2.4193,7.354,8.038,13.7218,11.9281,20.7433
		C1095.3823,1075.571,1099.9952,1088.7642,1097.8855,1103.8251z"/>
</g>
</svg>
